<?xml version="1.0" encoding="utf-8"?>
<!-- Generator: Adobe Illustrator 24.0.2, SVG Export Plug-In . SVG Version: 6.00 Build 0)  -->
<svg version="1.1" id="Layer_1" xmlns="http://www.w3.org/2000/svg" xmlns:xlink="http://www.w3.org/1999/xlink" x="0px" y="0px"
	 viewBox="0 0 769 769" style="enable-background:new 0 0 769 769;" xml:space="preserve">
<style type="text/css">
	.st0{fill:url(#SVGID_1_);}
	.st1{fill:#D6D4FB;}
	.st2{enable-background:new    ;}
	.st3{fill:#E4EDFD;enable-background:new    ;}
</style>
<g>
	<linearGradient id="SVGID_1_" gradientUnits="userSpaceOnUse" x1="85.9719" y1="384.5" x2="683.0281" y2="384.5">
		<stop  offset="0" style="stop-color:#7037F5"/>
		<stop  offset="1" style="stop-color:#B474FD"/>
	</linearGradient>
	<circle class="st0" cx="384.5" cy="384.5" r="298.53"/>
	<g>
		<rect x="253.92" y="249.7" class="st1" width="256.32" height="12.3"/>
	</g>
	<g>
		
			<rect x="526.33" y="252.11" transform="matrix(0.945 -0.3271 0.3271 0.945 -75.4159 191.7975)" class="st1" width="12.3" height="135.98"/>
	</g>
	<g class="st2">
		<rect x="212.46" y="378.2" class="st1" width="342.26" height="12.3"/>
	</g>
	<g>
		
			<rect x="164.38" y="312.58" transform="matrix(0.3012 -0.9535 0.9535 0.3012 -140.9883 445.0734)" class="st1" width="137.62" height="12.31"/>
	</g>
	<g>
		
			<rect x="311.93" y="242.28" transform="matrix(0.9165 -0.3999 0.3999 0.9165 -135.3744 160.9997)" class="st1" width="12.3" height="325.17"/>
	</g>
	<g>
		
			<rect x="284.66" y="398.72" transform="matrix(0.3925 -0.9197 0.9197 0.3925 -101.0268 656.7831)" class="st1" width="324.02" height="12.31"/>
	</g>
	<g>
		<rect x="297.45" y="420.49" class="st1" width="171.47" height="12.3"/>
	</g>
	<g>
		
			<rect x="463.99" y="399.34" transform="matrix(0.8969 -0.4423 0.4423 0.8969 -126.5696 268.2159)" class="st1" width="95.66" height="12.31"/>
	</g>
	<g>
		
			<rect x="248.8" y="358.03" transform="matrix(0.4455 -0.8953 0.8953 0.4455 -221.6655 453.0794)" class="st1" width="12.3" height="94.93"/>
	</g>
	<g>
		
			<rect x="250.91" y="227.06" transform="matrix(0.9554 -0.2954 0.2954 0.9554 -54.6807 104.4163)" class="st1" width="134.78" height="12.31"/>
	</g>
	<g>
		
			<rect x="440.31" y="167.35" transform="matrix(0.3164 -0.9486 0.9486 0.3164 82.6682 583.8758)" class="st1" width="12.31" height="134.47"/>
	</g>
	<circle class="st3" cx="212.46" cy="384.35" r="22.24"/>
	<circle class="st3" cx="382.68" cy="213.31" r="22.24"/>
	<circle class="st3" cx="253.92" cy="255.85" r="22.24"/>
	<circle class="st3" cx="510.24" cy="255.85" r="22.24"/>
	<circle class="st3" cx="554.72" cy="384.35" r="22.24"/>
	<circle class="st3" cx="297.45" cy="426.65" r="22.24"/>
	<circle class="st3" cx="468.92" cy="426.65" r="22.24"/>
	<circle class="st3" cx="383.11" cy="553.89" r="22.24"/>
</g>
</svg>
