<?xml version="1.0" encoding="utf-8"?>
<!-- Generator: Adobe Illustrator 24.0.2, SVG Export Plug-In . SVG Version: 6.00 Build 0)  -->
<svg version="1.1" id="Layer_1" xmlns="http://www.w3.org/2000/svg" xmlns:xlink="http://www.w3.org/1999/xlink" x="0px" y="0px"
	 viewBox="0 0 1280 769" style="enable-background:new 0 0 1280 769;" xml:space="preserve">
<style type="text/css">
	.st0{fill:url(#SVGID_1_);}
	.st1{fill:#D6D4FB;}
	.st2{enable-background:new    ;}
	.st3{fill:#E4EDFD;enable-background:new    ;}
	.st4{fill:url(#SVGID_2_);}
	.st5{fill:url(#SVGID_3_);}
	.st6{fill:url(#SVGID_4_);}
	.st7{fill:url(#SVGID_5_);}
	.st8{fill:url(#SVGID_6_);}
	.st9{fill:url(#SVGID_7_);}
	.st10{fill:url(#SVGID_8_);}
	.st11{fill:url(#SVGID_9_);}
	.st12{fill:url(#SVGID_10_);}
</style>
<g>
	<g>
		<linearGradient id="SVGID_1_" gradientUnits="userSpaceOnUse" x1="246.0112" y1="384.5" x2="413.33" y2="384.5">
			<stop  offset="0" style="stop-color:#7037F5"/>
			<stop  offset="1" style="stop-color:#B474FD"/>
		</linearGradient>
		<circle class="st0" cx="329.67" cy="384.5" r="83.66"/>
		<g>
			<rect x="293.08" y="346.72" class="st1" width="71.83" height="3.45"/>
		</g>
		<g>
			
				<rect x="369.42" y="347.4" transform="matrix(0.945 -0.3271 0.3271 0.945 -99.4555 141.57)" class="st1" width="3.45" height="38.11"/>
		</g>
		<g class="st2">
			<rect x="281.46" y="382.73" class="st1" width="95.92" height="3.45"/>
		</g>
		<g>
			
				<rect x="267.98" y="364.35" transform="matrix(0.3012 -0.9535 0.9535 0.3012 -148.3363 529.7147)" class="st1" width="38.57" height="3.45"/>
		</g>
		<g>
			
				<rect x="309.33" y="344.65" transform="matrix(0.9165 -0.3999 0.3999 0.9165 -130.0973 156.9668)" class="st1" width="3.45" height="91.13"/>
		</g>
		<g>
			
				<rect x="301.69" y="388.48" transform="matrix(0.3925 -0.9197 0.9197 0.3925 -148.0362 556.2891)" class="st1" width="90.8" height="3.45"/>
		</g>
		<g>
			<rect x="305.28" y="394.59" class="st1" width="48.05" height="3.45"/>
		</g>
		<g>
			
				<rect x="351.95" y="388.66" transform="matrix(0.8969 -0.4423 0.4423 0.8969 -134.9924 201.8699)" class="st1" width="26.81" height="3.45"/>
		</g>
		<g>
			
				<rect x="291.64" y="377.08" transform="matrix(0.4455 -0.8953 0.8953 0.4455 -186.8366 479.0908)" class="st1" width="3.45" height="26.6"/>
		</g>
		<g>
			
				<rect x="292.23" y="340.38" transform="matrix(0.9554 -0.2954 0.2954 0.9554 -87.1622 107.1527)" class="st1" width="37.77" height="3.45"/>
		</g>
		<g>
			
				<rect x="345.31" y="323.64" transform="matrix(0.3164 -0.9486 0.9486 0.3164 -87.6618 563.3221)" class="st1" width="3.45" height="37.68"/>
		</g>
		<circle class="st3" cx="281.46" cy="384.46" r="6.23"/>
		<circle class="st3" cx="329.16" cy="336.52" r="6.23"/>
		<circle class="st3" cx="293.08" cy="348.45" r="6.23"/>
		<circle class="st3" cx="364.91" cy="348.45" r="6.23"/>
		<circle class="st3" cx="377.37" cy="384.46" r="6.23"/>
		<circle class="st3" cx="305.27" cy="396.31" r="6.23"/>
		<circle class="st3" cx="353.33" cy="396.31" r="6.23"/>
		<circle class="st3" cx="329.28" cy="431.97" r="6.23"/>
	</g>
	<g>
		<linearGradient id="SVGID_2_" gradientUnits="userSpaceOnUse" x1="436.54" y1="380.424" x2="1040.4143" y2="378.5631">
			<stop  offset="0" style="stop-color:#7037F5"/>
			<stop  offset="1" style="stop-color:#B474FD"/>
		</linearGradient>
		<path class="st4" d="M505.65,363.03v-15.17c-27.02-11.68-68.69-9.59-66.67,37.04c-0.15,5.33,0.98,10.69,3.68,15.29
			c11.65,19.91,43.61,24,65.78,11.13v-35.04h-29.47v12.55h11.33v14.47c-15.64,3.66-25.34-0.44-30.03-11.1
			c-1.99-4.51-2.61-9.52-2.22-14.43c0.88-11.16,6.15-18.43,16.81-20.95c4.02-0.95,8.2-0.9,12.28-0.25
			C494.58,357.74,500.95,359.73,505.65,363.03z"/>
		<linearGradient id="SVGID_3_" gradientUnits="userSpaceOnUse" x1="436.6158" y1="390.0224" x2="1040.1023" y2="388.1626">
			<stop  offset="0" style="stop-color:#7037F5"/>
			<stop  offset="1" style="stop-color:#B474FD"/>
		</linearGradient>
		<path class="st5" d="M551.85,360.76c-40.97-1.91-42.48,57.36,0,57.95C595.38,418.71,590.5,357.33,551.85,360.76z M551.63,405.74
			c-15.21,0.05-16.69-32.17,0-32.72C568.16,373.02,568.13,406.21,551.63,405.74z"/>
		<linearGradient id="SVGID_4_" gradientUnits="userSpaceOnUse" x1="436.6172" y1="390.4648" x2="1040.1036" y2="388.6051">
			<stop  offset="0" style="stop-color:#7037F5"/>
			<stop  offset="1" style="stop-color:#B474FD"/>
		</linearGradient>
		<path class="st6" d="M695.44,360.76c-40.97-1.91-42.48,57.36,0,57.95C738.97,418.71,734.09,357.33,695.44,360.76z M695.21,405.74
			c-15.21,0.05-16.69-32.17,0-32.72C711.75,373.02,711.71,406.21,695.21,405.74z"/>
		<linearGradient id="SVGID_5_" gradientUnits="userSpaceOnUse" x1="436.5891" y1="381.3403" x2="1040.0754" y2="379.4805">
			<stop  offset="0" style="stop-color:#7037F5"/>
			<stop  offset="1" style="stop-color:#B474FD"/>
		</linearGradient>
		<path class="st7" d="M647.57,361.63v-15.87c-29.46-5.88-51.83-4.52-52.83,18.66c-0.46,13.83,8.95,21,25.46,23.38
			c14.47,0.8,19.52,11.56,7.52,15.72c-1.79,0.62-3.69,0.91-5.59,0.96c-9.04,0.22-18.21-3.61-27.4-7.63v16.3
			c16.89,6,32.2,7.59,45.17,2.57c5.84-2.26,10.39-6.98,12.05-13.01c2.58-9.34,0.14-20.81-6.64-24.6
			c-5.49-3.57-14.12-5.59-23.71-7.15c-12.55-1.19-13.48-13.69,0-14.73C630.98,356.02,639.6,357.92,647.57,361.63z"/>
		<linearGradient id="SVGID_6_" gradientUnits="userSpaceOnUse" x1="436.6191" y1="391.0995" x2="1040.1056" y2="389.2397">
			<stop  offset="0" style="stop-color:#7037F5"/>
			<stop  offset="1" style="stop-color:#B474FD"/>
		</linearGradient>
		<path class="st8" d="M757.06,361.57h-18.13v39c0,10.01,8.12,18.13,18.13,18.13h0c9.82,0,15.92-3.32,19.7-8.95v7.56h18.19v-55.73
			h-18.13v31.34c0,6.54-5.3,11.84-11.84,11.84l0,0c-4.31,0-7.81-3.49-7.82-7.8L757.06,361.57z"/>
		<linearGradient id="SVGID_7_" gradientUnits="userSpaceOnUse" x1="436.6161" y1="390.1225" x2="1040.1025" y2="388.2628">
			<stop  offset="0" style="stop-color:#7037F5"/>
			<stop  offset="1" style="stop-color:#B474FD"/>
		</linearGradient>
		<path class="st9" d="M812.68,361.57h17.96v8.6c5.1-8.81,13.16-10.94,23.19-8.6v15.05c-13.62-3.83-21.99-0.54-23.36,12.2v28.24
			h-17.78V361.57z"/>
		<linearGradient id="SVGID_8_" gradientUnits="userSpaceOnUse" x1="436.6178" y1="390.6777" x2="1040.1042" y2="388.818">
			<stop  offset="0" style="stop-color:#7037F5"/>
			<stop  offset="1" style="stop-color:#B474FD"/>
		</linearGradient>
		<path class="st10" d="M992.84,361.57h17.96v8.6c5.1-8.81,13.16-10.94,23.19-8.6v15.05c-13.62-3.83-21.99-0.54-23.36,12.2v28.24
			h-17.78V361.57z"/>
		<linearGradient id="SVGID_9_" gradientUnits="userSpaceOnUse" x1="436.6176" y1="390.6104" x2="1040.104" y2="388.7506">
			<stop  offset="0" style="stop-color:#7037F5"/>
			<stop  offset="1" style="stop-color:#B474FD"/>
		</linearGradient>
		<path class="st11" d="M908.05,378.19v-14.47c-7.76-3.49-16.68-3.99-26.5-2.15c-27.72,2.5-32.95,49.4,0,55.5
			c9.85,1.69,18.53,0.64,26.5-2.09V400.6c-15.08,10.11-30.08,4.53-30.16-11.71C878.32,372.35,893.23,369.65,908.05,378.19z"/>
		<linearGradient id="SVGID_10_" gradientUnits="userSpaceOnUse" x1="436.6182" y1="390.8029" x2="1040.1046" y2="388.9431">
			<stop  offset="0" style="stop-color:#7037F5"/>
			<stop  offset="1" style="stop-color:#B474FD"/>
		</linearGradient>
		<path class="st12" d="M938.38,394.07h41.33c0.1-22.02-9.9-32.93-29.29-33.55c-18.5,0.57-29.45,8.98-30.07,28.17
			c-0.12,3.76,0.28,7.53,1.4,11.12c3.28,10.33,11.16,17.43,28.33,18.09c9.84,0.24,18.71-1.48,26.84-4.66v-13.6
			C961.23,407.91,939.61,410.88,938.38,394.07z M946.97,372.95c1.55-0.4,3.17-0.45,4.76-0.26c5.88,0.72,8.84,3.83,8.79,10.38H938.3
			C939.47,377.52,942.37,374.14,946.97,372.95z"/>
	</g>
</g>
</svg>
